<?xml version="1.0" standalone="no"?>
<!DOCTYPE svg PUBLIC "-//W3C//DTD SVG 20010904//EN"
 "http://www.w3.org/TR/2001/REC-SVG-20010904/DTD/svg10.dtd">
<svg version="1.0" xmlns="http://www.w3.org/2000/svg"
 width="300.000000pt" height="300.000000pt" viewBox="0 0 300.000000 300.000000"
 preserveAspectRatio="xMidYMid meet">
<metadata>
Created by potrace 1.14, written by Peter Selinger 2001-2017
</metadata>
<g transform="translate(0.000000,300.000000) scale(0.100000,-0.100000)"
fill="#000000" stroke="none">
<path d="M783 2083 c-46 -111 -543 -1336 -543 -1339 0 -2 42 -4 93 -4 l92 0
80 205 79 205 315 -2 316 -3 79 -203 79 -202 93 0 92 0 -276 690 -277 690
-103 0 -103 0 -16 -37z m151 -199 c15 -44 71 -195 125 -335 l98 -254 -128 -3
c-71 -1 -187 -1 -258 0 l-130 3 99 255 c54 140 112 294 127 342 15 47 31 83
34 80 4 -4 18 -43 33 -88z"/>
<path d="M1730 1430 l0 -690 90 0 90 0 0 314 0 314 46 7 c25 3 63 13 85 20
l40 14 29 -47 c16 -26 109 -175 208 -332 l178 -285 107 -3 107 -3 -103 158
c-57 87 -166 252 -241 367 -76 116 -140 216 -143 223 -3 7 15 35 40 63 35 38
355 496 391 558 6 9 -14 12 -86 12 l-93 -1 -150 -225 c-211 -318 -276 -383
-377 -384 l-38 0 0 305 0 305 -90 0 -90 0 0 -690z"/>
</g>
</svg>
